<?xml version="1.0" encoding="utf-8"?>
<!-- Generator: Adobe Illustrator 21.0.2, SVG Export Plug-In . SVG Version: 6.00 Build 0)  -->
<svg version="1.1" id="Capa_1" xmlns="http://www.w3.org/2000/svg" xmlns:xlink="http://www.w3.org/1999/xlink" x="0px" y="0px"
	 viewBox="0 0 515 515" style="enable-background:new 0 0 515 515;" xml:space="preserve">
<style type="text/css">
	.st0{fill:#FA4932;}
</style>
<path class="st0" d="M485.6,198.1H440c-4,0-7.9,1.6-10.8,4.4l-25.9,26h-24.2v-15.2c0.2-22.9-16.6-42.4-39.2-45.6
	c35.2-36.1,34.5-93.8-1.6-129s-93.8-34.5-129,1.6c-4.8,4.9-9,10.4-12.6,16.2C170.5,13.5,114.4-0.2,71.3,26
	c-43,26.2-56.7,82.3-30.5,125.4c3.6,5.9,7.8,11.3,12.6,16.2c-22.7,3.2-39.5,22.7-39.2,45.6v243.3c0,25.2,20.4,45.6,45.6,45.6h273.7
	c25.2,0,45.6-20.4,45.6-45.6v-15.2h24.2l26,26c2.8,2.8,6.7,4.4,10.6,4.4h45.6c8.4,0,15.2-6.8,15.2-15.2V213.3
	C500.8,204.9,494,198.1,485.6,198.1z M272.7,46.1c33.6,0,60.8,27.2,60.8,60.8s-27.2,60.8-60.8,60.8s-60.8-27.2-60.8-60.8
	C211.9,73.3,239.1,46.1,272.7,46.1z M196.7,157.2c2.5,3.7,5.2,7.2,8.2,10.5h-16.4C191.5,164.4,194.2,160.9,196.7,157.2z M120.7,46.1
	c33.6,0,60.8,27.2,60.8,60.8s-27.2,60.8-60.8,60.8s-60.8-27.2-60.8-60.8C59.8,73.3,87.1,46.1,120.7,46.1z"/>
</svg>
