<?xml version="1.0" standalone="no"?>
<!DOCTYPE svg PUBLIC "-//W3C//DTD SVG 20010904//EN"
 "http://www.w3.org/TR/2001/REC-SVG-20010904/DTD/svg10.dtd">
<svg version="1.0" xmlns="http://www.w3.org/2000/svg"
 width="700.000000pt" height="700.000000pt" viewBox="0 0 700.000000 700.000000"
 preserveAspectRatio="xMidYMid meet">
<metadata>
Created by potrace 1.11, written by Peter Selinger 2001-2013
</metadata>
<g transform="translate(0.000000,700.000000) scale(0.100000,-0.100000)"
fill="#000000" stroke="none">
<path d="M1538 6824 c-2 -1 -30 -4 -63 -7 -261 -21 -533 -153 -735 -356 -236
-237 -357 -522 -364 -861 -7 -287 123 -635 309 -832 41 -42 41 -46 1 -54 -39
-7 -116 -34 -158 -55 -34 -17 -131 -91 -169 -129 -32 -32 -87 -117 -113 -175
-55 -125 -53 -52 -51 -1920 1 -952 5 -1743 9 -1760 30 -128 95 -244 185 -331
78 -74 205 -138 321 -160 19 -4 895 -8 1945 -8 1435 -1 1927 1 1980 10 262 45
464 248 510 512 3 18 6 93 7 167 1 87 6 135 12 136 6 0 80 1 165 1 l155 0 187
-189 c113 -112 203 -195 226 -205 34 -15 78 -17 383 -18 207 0 360 4 382 10
49 14 93 52 121 104 l22 41 0 1705 0 1705 -25 45 c-16 28 -43 55 -74 75 l-49
30 -366 0 c-338 0 -369 -1 -401 -19 -19 -10 -119 -102 -222 -205 l-187 -186
-164 0 -164 -1 -1 147 c-1 160 -14 232 -60 328 -84 175 -222 286 -424 343
l-48 13 39 41 c49 51 142 187 180 262 50 101 89 217 117 347 10 51 14 338 5
380 -5 22 -12 56 -15 75 -18 117 -74 260 -164 416 -33 57 -125 168 -196 237
-141 135 -309 232 -517 296 -92 29 -245 48 -357 46 -76 -2 -191 -13 -202 -20
-3 -2 -23 -6 -44 -9 -58 -9 -207 -61 -278 -97 -176 -88 -350 -235 -460 -390
l-54 -76 -39 56 c-201 288 -517 483 -855 526 -55 8 -237 14 -242 9z m313 -479
c276 -72 497 -288 584 -572 41 -132 39 -315 -5 -463 -105 -354 -434 -594 -801
-585 -117 3 -166 11 -253 41 -468 162 -689 683 -483 1134 115 251 383 441 660
467 34 3 63 6 64 7 8 6 182 -16 234 -29z m1944 21 c308 -26 584 -246 692 -551
10 -28 23 -80 38 -148 7 -35 7 -203 0 -237 -3 -14 -8 -38 -11 -55 -40 -223
-224 -460 -439 -568 -56 -28 -169 -64 -230 -75 -87 -14 -267 -6 -349 17 -293
81 -505 294 -588 589 -32 114 -31 304 0 422 62 227 231 432 438 530 86 40 186
68 279 78 44 4 85 7 90 6 6 -1 42 -5 80 -8z m-1092 -1543 c14 -21 37 -51 51
-67 14 -16 26 -31 26 -33 0 -1 -47 -3 -105 -3 -58 0 -105 3 -105 8 0 4 15 24
33 44 17 20 40 48 50 62 10 14 19 26 21 26 2 0 15 -17 29 -37z"/>
</g>
</svg>
