<?xml version="1.0" standalone="no"?>
<!DOCTYPE svg PUBLIC "-//W3C//DTD SVG 20010904//EN"
 "http://www.w3.org/TR/2001/REC-SVG-20010904/DTD/svg10.dtd">
<svg version="1.0" xmlns="http://www.w3.org/2000/svg"
 width="160.000000pt" height="160.000000pt" viewBox="0 0 160.000000 160.000000"
 preserveAspectRatio="xMidYMid meet">
<metadata>
Created by potrace 1.11, written by Peter Selinger 2001-2013
</metadata>
<g transform="translate(0.000000,160.000000) scale(0.100000,-0.100000)"
fill="#000000" stroke="none">
<path d="M624 1228 c-22 -5 -49 -16 -60 -26 -10 -9 -29 -17 -41 -16 -12 1 -46
-3 -75 -8 -91 -15 -130 -12 -178 16 -25 14 -58 26 -73 26 -51 0 -153 -123
-173 -211 -16 -68 -22 -103 -19 -118 2 -9 4 -22 4 -28 1 -7 38 -37 84 -67 54
-35 110 -84 164 -143 l82 -91 -6 -49 c-10 -85 33 -139 103 -131 33 4 34 3 30
-29 -7 -66 85 -112 136 -66 20 18 20 17 14 -18 -12 -76 86 -123 132 -64 19 24
21 24 26 7 8 -24 52 -48 80 -44 29 5 45 20 64 60 12 25 28 38 55 47 22 7 46
23 54 34 10 15 19 19 31 12 9 -5 26 -5 38 -1 26 10 57 57 50 76 -4 10 3 14 28
14 40 0 81 30 90 65 4 16 13 25 25 25 28 0 72 56 67 85 -3 15 3 30 16 42 11
10 31 35 44 55 17 27 44 48 94 73 79 40 90 60 70 128 -17 61 -95 199 -131 235
-42 41 -61 44 -117 16 -102 -52 -168 -59 -237 -26 -22 11 -56 23 -75 27 -19 4
-69 21 -110 37 -97 39 -124 47 -185 54 -27 4 -52 7 -55 9 -3 1 -23 -2 -46 -7z"/>
</g>
</svg>
